<svg width="91" height="27" viewBox="0 0 91 27" fill="none" xmlns="http://www.w3.org/2000/svg">
<path d="M0.328703 9.63745C0.698845 9.66905 0.996592 9.76103 1.33407 9.899C1.38488 9.91967 1.43569 9.94038 1.48804 9.96169C2.97111 10.582 4.19003 11.6091 4.77153 13.0124C4.81928 13.1413 4.86371 13.2707 4.9066 13.401C4.92299 13.4505 4.93935 13.5 4.95622 13.551C5.17989 14.2495 5.33431 14.9629 5.49686 15.6744C5.98436 17.802 6.50091 19.9549 8.08094 21.6678C8.12472 21.7157 8.16853 21.7637 8.21366 21.8131C9.11041 22.7547 10.3528 23.3048 11.7195 23.4004C12.1609 23.4206 12.6024 23.4165 13.0443 23.4139C13.2254 23.4128 13.4066 23.4123 13.5876 23.4118C14.1021 23.4104 14.6165 23.4083 15.131 23.4057C15.4473 23.4041 15.7636 23.4031 16.0799 23.4025C16.199 23.4022 16.3182 23.4016 16.4373 23.4008C17.4204 23.3941 18.4176 23.4152 19.3701 23.6583C19.4206 23.6708 19.4711 23.6833 19.5231 23.6962C20.5081 23.9496 21.4459 24.3366 21.9865 25.1619C22.2016 25.561 22.2933 25.9914 22.2933 26.4334C22.2468 26.4166 22.2002 26.3998 22.1522 26.3825C22.0922 26.361 22.0322 26.3394 21.9703 26.3172C21.9176 26.298 21.8649 26.2788 21.8106 26.259C20.6881 25.8691 19.4702 25.8986 18.284 25.8994C18.1898 25.8994 18.1898 25.8994 18.0937 25.8993C16.5979 25.8994 15.1032 25.9419 13.6083 25.9852C13.5143 25.9879 13.4202 25.9906 13.3262 25.9933C13.1526 25.9983 12.979 26.0035 12.8054 26.0088C5.88177 26.2115 5.88177 26.2115 3.49419 24.2249C2.91911 23.7222 2.51343 23.1284 2.33136 22.4233C2.52758 22.505 2.68852 22.6035 2.86029 22.7212C4.3386 23.6542 6.22385 23.9335 7.95171 24.283C7.78145 24.2055 7.60996 24.1319 7.4359 24.0615C4.81535 22.9858 2.81242 21.1842 1.50365 18.8781C1.48145 18.8395 1.45924 18.8009 1.43637 18.7611C1.28974 18.4929 1.28974 18.4929 1.36233 18.297C1.39065 18.3202 1.41896 18.3435 1.44813 18.3675C1.83218 18.6772 2.23912 18.9523 2.65437 19.2268C2.49283 19.0389 2.32658 18.8727 2.13352 18.711C0.991165 17.6884 0.310649 16.3144 0.1995 14.868C0.457273 14.9728 0.564157 15.095 0.728427 15.3039C1.1154 15.7834 1.51242 16.2315 2.07295 16.5534C2.02124 16.5057 2.02124 16.5057 1.96848 16.4569C0.697531 15.2404 -0.0330819 13.713 0.00115172 12.028C0.00265069 11.9871 0.00414965 11.9462 0.00569404 11.904C0.264743 11.9817 0.313674 12.1235 0.43368 12.329C0.90743 13.1038 1.54454 13.8633 2.33136 14.4031C2.29951 14.3649 2.29951 14.3649 2.26701 14.3259C2.19998 14.2455 2.13312 14.1649 2.06639 14.0843C1.98187 13.9836 1.89598 13.8837 1.80899 13.7847C0.805012 12.6248 0.159808 11.3087 0.264101 9.8118C0.28542 9.75427 0.306739 9.69674 0.328703 9.63745Z" fill="white"/>
<path d="M20.1 2.68954C20.2066 2.7776 20.313 2.86598 20.4189 2.9547C20.4652 2.99254 20.5115 3.03037 20.5592 3.06935C21.3788 3.7676 21.9917 4.63719 22.5508 5.51188C22.5866 5.56685 22.5866 5.56685 22.6232 5.62298C23.0872 6.33957 23.6306 7.24971 23.6732 8.09085C23.6764 8.13323 23.6796 8.17564 23.6828 8.21932C23.6309 8.43489 23.5091 8.56952 23.326 8.70832C23.1089 8.81865 22.8821 8.90271 22.6517 8.98801C21.6784 9.36897 20.916 9.84059 20.1605 10.51C20.0762 10.5835 20.0762 10.5835 19.9902 10.6585C19.7787 10.8453 19.5752 11.0322 19.3893 11.2401C19.3454 11.2868 19.3014 11.3336 19.2561 11.3817C19.2135 11.3817 19.1708 11.3817 19.1269 11.3817C19.1247 11.3445 19.1225 11.3074 19.1201 11.269C19.0185 9.65935 18.8168 8.0454 18.2871 6.49987C18.2655 6.43548 18.2655 6.43548 18.2435 6.36983C17.6439 4.61109 16.5213 2.78745 14.6568 1.89656C13.422 1.34701 11.8481 1.25239 10.5348 1.61801C8.75877 2.16829 7.65006 3.41809 6.83361 4.88552C5.84035 6.74483 5.48676 8.81778 5.34053 10.8589C5.33625 10.9183 5.33198 10.9777 5.3276 11.0389C5.32417 11.0913 5.32074 11.1436 5.31721 11.1975C5.30211 11.3236 5.30211 11.3236 5.2375 11.4399C5.19487 11.4399 5.15221 11.4399 5.1083 11.4399C5.00761 11.3372 5.00761 11.3372 4.88622 11.1929C3.93518 10.1014 2.87946 9.34157 1.43407 8.83909C1.11377 8.72287 0.945937 8.63691 0.77998 8.35961C0.730812 8.00878 0.800579 7.694 0.929372 7.36437C0.946168 7.32046 0.962963 7.27651 0.980267 7.23127C1.3451 6.3163 1.83352 5.43275 2.45963 4.64012C2.50518 4.5822 2.55073 4.5243 2.59766 4.46464C3.37557 3.50599 4.24787 2.67938 5.30211 1.96671C5.35665 1.92955 5.41118 1.89239 5.46738 1.85411C9.80857 -0.990994 16.1655 -0.44406 20.1 2.68954Z" fill="#1570EF"/>
<path d="M24.1008 9.63745C24.4344 10.5378 23.9588 11.7258 23.5209 12.5452C23.1865 13.1422 22.7652 13.6577 22.292 14.1706C22.2056 14.2673 22.1194 14.3641 22.0336 14.4612C22.8917 13.7788 23.5449 13.0787 24.1017 12.1778C24.1617 12.0842 24.228 11.994 24.2946 11.904C24.3373 11.904 24.3799 11.904 24.4238 11.904C24.5217 13.538 23.8348 14.9741 22.698 16.2168C22.5473 16.377 22.5473 16.377 22.4212 16.5534C22.964 16.1386 23.4153 15.704 23.8334 15.1841C23.8666 15.143 23.8998 15.1019 23.934 15.0596C23.9778 15.0042 23.9778 15.0042 24.0224 14.9476C24.0483 14.9214 24.0742 14.8951 24.1008 14.868C24.1435 14.868 24.1861 14.868 24.23 14.868C24.1053 16.662 23.1129 18.0247 21.7106 19.2268C22.1108 19.005 22.4529 18.7561 22.7919 18.4629C22.9383 18.3548 23.0164 18.3304 23.1964 18.297C22.8058 19.2429 22.253 20.2043 21.5168 20.9703C21.4886 20.9996 21.4605 21.029 21.4315 21.0591C20.0638 22.4713 18.5617 22.8867 16.5303 23.019C16.4498 23.0243 16.3692 23.0297 16.2862 23.0353C15.7387 23.0666 15.2148 23.0518 14.6689 23.0045C14.8271 22.8905 14.9853 22.7767 15.1444 22.6639C15.31 22.5461 15.4742 22.4268 15.638 22.3071C15.6869 22.2718 15.7359 22.2365 15.7864 22.2001C17.9727 20.5506 18.4699 17.6617 19.0233 15.2951C19.4599 13.4288 19.9374 11.7198 21.7769 10.5603C23.3946 9.63745 23.3946 9.63745 24.1008 9.63745Z" fill="white"/>
<path d="M40.2955 25.9984H36.4022V19.8865C35.5403 19.6687 34.7463 19.3194 34.0203 18.8384C33.3034 18.3574 32.6863 17.7857 32.1691 17.1232C31.6518 16.4517 31.248 15.7121 30.9576 14.9044C30.6763 14.0877 30.5356 13.2301 30.5356 12.3317V6.47841H34.4422V12.3317C34.4422 12.8671 34.5421 13.3753 34.7417 13.8563C34.9504 14.3282 35.2318 14.7411 35.5856 15.095C35.9396 15.4489 36.3524 15.7302 36.8244 15.9389C37.3054 16.1386 37.8136 16.2384 38.3488 16.2384C38.8845 16.2384 39.3879 16.1386 39.8598 15.9389C40.3409 15.7302 40.7582 15.4489 41.1123 15.095C41.4659 14.7411 41.7427 14.3282 41.9426 13.8563C42.1513 13.3753 42.2556 12.8671 42.2556 12.3317V6.47841H46.1485V12.3317C46.1485 13.2301 46.0031 14.0877 45.7128 14.9044C45.4317 15.7121 45.0322 16.4517 44.5149 17.1232C43.998 17.7857 43.3807 18.3574 42.6638 18.8384C41.947 19.3194 41.1577 19.6687 40.2955 19.8865V25.9984ZM67.9278 16.3201C67.9278 17.2457 67.8051 18.1396 67.5602 19.0017C67.3241 19.8548 66.9883 20.6579 66.5527 21.4111C66.1174 22.1552 65.5909 22.8358 64.974 23.4529C64.3567 24.07 63.6761 24.6009 62.9322 25.0456C62.1879 25.4812 61.385 25.8169 60.5228 26.0529C59.6606 26.2979 58.7669 26.4204 57.841 26.4204C56.9155 26.4204 56.0218 26.2979 55.1596 26.0529C54.3066 25.8169 53.5033 25.4812 52.7502 25.0456C52.0063 24.6009 51.3257 24.07 50.7084 23.4529C50.0915 22.8358 49.5607 22.1552 49.1158 21.4111C48.6802 20.6579 48.34 19.8548 48.0951 19.0017C47.859 18.1396 47.7411 17.2457 47.7411 16.3201C47.7411 15.3945 47.859 14.5006 48.0951 13.6385C48.34 12.7764 48.6802 11.9732 49.1158 11.2291C49.5607 10.485 50.0915 9.80437 50.7084 9.18727C51.3257 8.57017 52.0063 8.04383 52.7502 7.60822C53.5033 7.17265 54.3066 6.83688 55.1596 6.60091C56.0218 6.3559 56.9155 6.2334 57.841 6.2334C58.7669 6.2334 59.6606 6.3559 60.5228 6.60091C61.385 6.83688 62.1879 7.17265 62.9322 7.60822C63.6761 8.04383 64.3567 8.57017 64.974 9.18727C65.5909 9.80437 66.1174 10.485 66.5527 11.2291C66.9883 11.9732 67.3241 12.7764 67.5602 13.6385C67.8051 14.5006 67.9278 15.3945 67.9278 16.3201ZM64.0481 16.3201C64.0481 15.4671 63.8848 14.6639 63.5582 13.9107C63.2317 13.1484 62.7868 12.4905 62.2241 11.9369C61.6705 11.3743 61.0126 10.9296 60.2504 10.6029C59.4973 10.2763 58.6941 10.1129 57.841 10.1129C56.9792 10.1129 56.1716 10.2763 55.4181 10.6029C54.665 10.9296 54.0071 11.3743 53.4444 11.9369C52.882 12.4905 52.4372 13.1484 52.1106 13.9107C51.7837 14.6639 51.6204 15.4671 51.6204 16.3201C51.6204 17.1731 51.7837 17.9763 52.1106 18.7295C52.4372 19.4736 52.882 20.127 53.4444 20.6896C54.0071 21.2523 54.665 21.6969 55.4181 22.0236C56.1716 22.3503 56.9792 22.5137 57.841 22.5137C58.6941 22.5137 59.4973 22.3503 60.2504 22.0236C61.0126 21.6969 61.6705 21.2523 62.2241 20.6896C62.7868 20.127 63.2317 19.4736 63.5582 18.7295C63.8848 17.9763 64.0481 17.1731 64.0481 16.3201ZM74.3798 8.76527C74.3798 9.16457 74.3388 9.59564 74.2571 10.0585C74.1846 10.5122 74.062 10.9659 73.8895 11.4197C73.7263 11.8643 73.5084 12.2909 73.2364 12.6993C72.964 13.1076 72.6375 13.4524 72.2563 13.7338L70.786 12.6993C71.0313 12.4088 71.2173 12.1321 71.3443 11.8689C71.4714 11.6057 71.5709 11.3426 71.6438 11.0794C71.3714 11.034 71.1173 10.9433 70.8816 10.8071C70.6454 10.671 70.4411 10.5031 70.2687 10.3035C70.1054 10.0947 69.974 9.85881 69.874 9.59564C69.7745 9.33247 69.7243 9.05568 69.7243 8.76527C69.7243 8.45675 69.7832 8.1618 69.9015 7.88047C70.0285 7.59918 70.1962 7.35413 70.4049 7.14541C70.6227 6.92764 70.8676 6.75973 71.14 6.64177C71.4212 6.51473 71.7207 6.4512 72.0385 6.4512C72.3651 6.4512 72.6689 6.51473 72.9505 6.64177C73.2408 6.75973 73.4905 6.92764 73.6992 7.14541C73.9079 7.35413 74.0711 7.59918 74.189 7.88047C74.3161 8.1618 74.3798 8.45675 74.3798 8.76527ZM90.9998 25.9984H77.3336V6.47841H81.24V22.0917H90.9998V25.9984Z" fill="white"/>
</svg>
