<svg width="25" height="27" viewBox="0 0 25 27" fill="none" xmlns="http://www.w3.org/2000/svg">
<path d="M0.328703 9.63745C0.698845 9.66905 0.996592 9.76103 1.33407 9.899C1.38488 9.91967 1.43569 9.94038 1.48804 9.96169C2.97111 10.582 4.19003 11.6091 4.77153 13.0124C4.81928 13.1413 4.86371 13.2707 4.9066 13.401C4.92299 13.4505 4.93935 13.5 4.95622 13.551C5.17989 14.2495 5.33431 14.9629 5.49686 15.6744C5.98436 17.802 6.50091 19.9549 8.08094 21.6678C8.12472 21.7157 8.16853 21.7637 8.21366 21.8131C9.11041 22.7547 10.3528 23.3048 11.7195 23.4004C12.1609 23.4206 12.6024 23.4165 13.0443 23.4139C13.2254 23.4128 13.4066 23.4123 13.5876 23.4118C14.1021 23.4104 14.6165 23.4083 15.131 23.4057C15.4473 23.4041 15.7636 23.4031 16.0799 23.4025C16.199 23.4022 16.3182 23.4016 16.4373 23.4008C17.4204 23.3941 18.4176 23.4152 19.3701 23.6583C19.4206 23.6708 19.4711 23.6833 19.5231 23.6962C20.5081 23.9496 21.4459 24.3366 21.9865 25.1619C22.2016 25.561 22.2933 25.9914 22.2933 26.4334C22.2468 26.4166 22.2002 26.3998 22.1522 26.3825C22.0922 26.361 22.0322 26.3394 21.9703 26.3172C21.9176 26.298 21.8649 26.2788 21.8106 26.259C20.6881 25.8691 19.4702 25.8986 18.284 25.8994C18.1898 25.8994 18.1898 25.8994 18.0937 25.8993C16.5979 25.8994 15.1032 25.9419 13.6083 25.9852C13.5143 25.9879 13.4202 25.9906 13.3262 25.9933C13.1526 25.9983 12.979 26.0035 12.8054 26.0088C5.88177 26.2115 5.88177 26.2115 3.49419 24.2249C2.91911 23.7222 2.51343 23.1284 2.33136 22.4233C2.52758 22.505 2.68852 22.6035 2.86029 22.7212C4.3386 23.6542 6.22385 23.9335 7.95171 24.283C7.78145 24.2055 7.60996 24.1319 7.4359 24.0615C4.81535 22.9858 2.81242 21.1842 1.50365 18.8781C1.48145 18.8395 1.45924 18.8009 1.43637 18.7611C1.28974 18.4929 1.28974 18.4929 1.36233 18.297C1.39065 18.3202 1.41896 18.3435 1.44813 18.3675C1.83218 18.6772 2.23912 18.9523 2.65437 19.2268C2.49283 19.0389 2.32658 18.8727 2.13352 18.711C0.991165 17.6884 0.310649 16.3144 0.1995 14.868C0.457273 14.9728 0.564157 15.095 0.728427 15.3039C1.1154 15.7834 1.51242 16.2315 2.07295 16.5534C2.02124 16.5057 2.02124 16.5057 1.96848 16.4569C0.697531 15.2404 -0.0330819 13.713 0.00115172 12.028C0.00265069 11.9871 0.00414965 11.9462 0.00569404 11.904C0.264743 11.9817 0.313674 12.1235 0.43368 12.329C0.90743 13.1038 1.54454 13.8633 2.33136 14.4031C2.29951 14.3649 2.29951 14.3649 2.26701 14.3259C2.19998 14.2455 2.13312 14.1649 2.06639 14.0843C1.98187 13.9836 1.89598 13.8837 1.80899 13.7847C0.805012 12.6248 0.159808 11.3087 0.264101 9.8118C0.28542 9.75427 0.306739 9.69674 0.328703 9.63745Z" fill="white"/>
<path d="M20.1 2.68954C20.2066 2.7776 20.313 2.86598 20.4189 2.9547C20.4652 2.99254 20.5115 3.03037 20.5592 3.06935C21.3788 3.7676 21.9917 4.63719 22.5508 5.51188C22.5866 5.56685 22.5866 5.56685 22.6232 5.62298C23.0872 6.33957 23.6306 7.24971 23.6732 8.09085C23.6764 8.13323 23.6796 8.17564 23.6828 8.21932C23.6309 8.43489 23.5091 8.56952 23.326 8.70832C23.1089 8.81865 22.8821 8.90271 22.6517 8.98801C21.6784 9.36897 20.916 9.84059 20.1605 10.51C20.0762 10.5835 20.0762 10.5835 19.9902 10.6585C19.7787 10.8453 19.5752 11.0322 19.3893 11.2401C19.3454 11.2868 19.3014 11.3336 19.2561 11.3817C19.2135 11.3817 19.1708 11.3817 19.1269 11.3817C19.1247 11.3445 19.1225 11.3074 19.1201 11.269C19.0185 9.65935 18.8168 8.0454 18.2871 6.49987C18.2655 6.43548 18.2655 6.43548 18.2435 6.36983C17.6439 4.61109 16.5213 2.78745 14.6568 1.89656C13.422 1.34701 11.8481 1.25239 10.5348 1.61801C8.75877 2.16829 7.65006 3.41809 6.83361 4.88552C5.84035 6.74483 5.48676 8.81778 5.34053 10.8589C5.33625 10.9183 5.33198 10.9777 5.3276 11.0389C5.32417 11.0913 5.32074 11.1436 5.31721 11.1975C5.30211 11.3236 5.30211 11.3236 5.2375 11.4399C5.19487 11.4399 5.15221 11.4399 5.1083 11.4399C5.00761 11.3372 5.00761 11.3372 4.88622 11.1929C3.93518 10.1014 2.87946 9.34157 1.43407 8.83909C1.11377 8.72287 0.945937 8.63691 0.77998 8.35961C0.730812 8.00878 0.800579 7.694 0.929372 7.36437C0.946168 7.32046 0.962963 7.27651 0.980267 7.23127C1.3451 6.3163 1.83352 5.43275 2.45963 4.64012C2.50518 4.5822 2.55073 4.5243 2.59766 4.46464C3.37557 3.50599 4.24787 2.67938 5.30211 1.96671C5.35665 1.92955 5.41118 1.89239 5.46738 1.85411C9.80857 -0.990994 16.1655 -0.44406 20.1 2.68954Z" fill="#1570EF"/>
<path d="M24.1008 9.63745C24.4344 10.5378 23.9588 11.7258 23.5209 12.5452C23.1865 13.1422 22.7652 13.6577 22.292 14.1706C22.2056 14.2673 22.1194 14.3641 22.0336 14.4612C22.8917 13.7788 23.5449 13.0787 24.1017 12.1778C24.1617 12.0842 24.228 11.994 24.2946 11.904C24.3373 11.904 24.3799 11.904 24.4238 11.904C24.5217 13.538 23.8348 14.9741 22.698 16.2168C22.5473 16.377 22.5473 16.377 22.4212 16.5534C22.964 16.1386 23.4153 15.704 23.8334 15.1841C23.8666 15.143 23.8998 15.1019 23.934 15.0596C23.9778 15.0042 23.9778 15.0042 24.0224 14.9476C24.0483 14.9214 24.0742 14.8951 24.1008 14.868C24.1435 14.868 24.1861 14.868 24.23 14.868C24.1053 16.662 23.1129 18.0247 21.7106 19.2268C22.1108 19.005 22.4529 18.7561 22.7919 18.4629C22.9383 18.3548 23.0164 18.3304 23.1964 18.297C22.8058 19.2429 22.253 20.2043 21.5168 20.9703C21.4886 20.9996 21.4605 21.029 21.4315 21.0591C20.0638 22.4713 18.5617 22.8867 16.5303 23.019C16.4498 23.0243 16.3692 23.0297 16.2862 23.0353C15.7387 23.0666 15.2148 23.0518 14.6689 23.0045C14.8271 22.8905 14.9853 22.7767 15.1444 22.6639C15.31 22.5461 15.4742 22.4268 15.638 22.3071C15.6869 22.2718 15.7359 22.2365 15.7864 22.2001C17.9727 20.5506 18.4699 17.6617 19.0233 15.2951C19.4599 13.4288 19.9374 11.7198 21.7769 10.5603C23.3946 9.63745 23.3946 9.63745 24.1008 9.63745Z" fill="white"/>
</svg>
