<svg width="61" height="21" viewBox="0 0 61 21" fill="none" xmlns="http://www.w3.org/2000/svg">
<path d="M10.2955 19.9984H6.40221V13.8865C5.54029 13.6687 4.74626 13.3194 4.0203 12.8384C3.30338 12.3574 2.6863 11.7857 2.16905 11.1232C1.65181 10.4517 1.24799 9.71206 0.957587 8.90444C0.676266 8.08769 0.535645 7.23013 0.535645 6.3317V0.478406H4.44224V6.3317C4.44224 6.86712 4.54208 7.37529 4.74172 7.85627C4.95044 8.32816 5.23177 8.74107 5.58565 9.095C5.93957 9.44889 6.35243 9.73022 6.82435 9.93895C7.30543 10.1386 7.8136 10.2384 8.34884 10.2384C8.88448 10.2384 9.38787 10.1386 9.85979 9.93895C10.3409 9.73022 10.7582 9.44889 11.1123 9.095C11.4659 8.74107 11.7427 8.32816 11.9426 7.85627C12.1513 7.37529 12.2556 6.86712 12.2556 6.3317V0.478406H16.1485V6.3317C16.1485 7.23013 16.0031 8.08769 15.7128 8.90444C15.4317 9.7121 15.0322 10.4517 14.5149 11.1232C13.998 11.7857 13.3807 12.3574 12.6638 12.8384C11.947 13.3194 11.1577 13.6687 10.2955 13.8865V19.9984ZM37.9278 10.3201C37.9278 11.2457 37.8051 12.1396 37.5602 13.0017C37.3241 13.8548 36.9883 14.6579 36.5527 15.4111C36.1174 16.1552 35.5909 16.8358 34.974 17.4529C34.3567 18.07 33.6761 18.6009 32.9322 19.0456C32.1879 19.4812 31.385 19.8169 30.5228 20.0529C29.6606 20.2979 28.7669 20.4204 27.841 20.4204C26.9155 20.4204 26.0218 20.2979 25.1596 20.0529C24.3066 19.8169 23.5033 19.4812 22.7502 19.0456C22.0063 18.6009 21.3257 18.07 20.7084 17.4529C20.0915 16.8358 19.5607 16.1552 19.1158 15.4111C18.6802 14.6579 18.34 13.8548 18.0951 13.0017C17.859 12.1396 17.7411 11.2457 17.7411 10.3201C17.7411 9.39445 17.859 8.50061 18.0951 7.63846C18.34 6.77636 18.6802 5.97323 19.1158 5.22909C19.5607 4.48499 20.0915 3.80437 20.7084 3.18727C21.3257 2.57017 22.0063 2.04383 22.7502 1.60822C23.5033 1.17265 24.3066 0.836877 25.1596 0.60091C26.0218 0.355902 26.9155 0.233398 27.841 0.233398C28.7669 0.233398 29.6606 0.355902 30.5228 0.60091C31.385 0.836877 32.1879 1.17265 32.9322 1.60822C33.6761 2.04383 34.3567 2.57017 34.974 3.18727C35.5909 3.80437 36.1174 4.48499 36.5527 5.22909C36.9883 5.97323 37.3241 6.77636 37.5602 7.63846C37.8051 8.50061 37.9278 9.39445 37.9278 10.3201ZM34.0481 10.3201C34.0481 9.46706 33.8848 8.66393 33.5582 7.91071C33.2317 7.14845 32.7868 6.49053 32.2241 5.93695C31.6705 5.37429 31.0126 4.92964 30.2504 4.60295C29.4973 4.27626 28.6941 4.1129 27.841 4.1129C26.9792 4.1129 26.1716 4.27626 25.4181 4.60295C24.665 4.92964 24.0071 5.37429 23.4444 5.93695C22.882 6.49053 22.4372 7.14845 22.1106 7.91071C21.7837 8.66393 21.6204 9.46706 21.6204 10.3201C21.6204 11.1731 21.7837 11.9763 22.1106 12.7295C22.4372 13.4736 22.882 14.127 23.4444 14.6896C24.0071 15.2523 24.665 15.6969 25.4181 16.0236C26.1716 16.3503 26.9792 16.5137 27.841 16.5137C28.6941 16.5137 29.4973 16.3503 30.2504 16.0236C31.0126 15.6969 31.6705 15.2523 32.2241 14.6896C32.7868 14.127 33.2317 13.4736 33.5582 12.7295C33.8848 11.9763 34.0481 11.1731 34.0481 10.3201ZM44.3798 2.76527C44.3798 3.16457 44.3388 3.59564 44.2571 4.05845C44.1846 4.51219 44.062 4.96592 43.8895 5.41969C43.7263 5.86435 43.5084 6.29088 43.2364 6.69925C42.964 7.10758 42.6375 7.45244 42.2563 7.73376L40.786 6.69925C41.0313 6.40884 41.2173 6.13205 41.3443 5.86889C41.4714 5.60572 41.5709 5.34255 41.6438 5.07938C41.3714 5.03398 41.1173 4.94326 40.8816 4.80714C40.6454 4.67101 40.4411 4.50311 40.2687 4.30346C40.1054 4.09473 39.974 3.85881 39.874 3.59564C39.7745 3.33247 39.7243 3.05568 39.7243 2.76527C39.7243 2.45675 39.7832 2.1618 39.9015 1.88047C40.0285 1.59918 40.1962 1.35413 40.4049 1.14541C40.6227 0.927639 40.8676 0.759734 41.14 0.641771C41.4212 0.514727 41.7207 0.451205 42.0385 0.451205C42.3651 0.451205 42.6689 0.514727 42.9505 0.641771C43.2408 0.759734 43.4905 0.927639 43.6992 1.14541C43.9079 1.35413 44.0711 1.59918 44.189 1.88047C44.3161 2.1618 44.3798 2.45675 44.3798 2.76527ZM60.9998 19.9984H47.3336V0.478406H51.24V16.0917H60.9998V19.9984Z" fill="white"/>
</svg>
